<svg xmlns="http://www.w3.org/2000/svg" width="24" height="24" viewBox="0 0 24 24">
    <path
        d="M6 12h10v1h-10v-1zm7.816-3h-7.816v1h9.047c-.45-.283-.863-.618-1.231-1zm-7.816-2h6.5c-.134-.32-.237-.656-.319-1h-6.181v1zm13 3.975v2.568c0 4.107-6 2.457-6 2.457s1.518 6-2.638 6h-7.362v-20h9.5c.312-.749.763-1.424 1.316-2h-12.816v24h10.189c3.163 0 9.811-7.223 9.811-9.614v-3.886c-.623.26-1.297.421-2 .475zm4-6.475c0 2.485-2.015 4.5-4.5 4.5s-4.5-2.015-4.5-4.5 2.015-4.5 4.5-4.5 4.5 2.015 4.5 4.5zm-2.156-.882l-.696-.696-2.116 2.169-.992-.941-.696.697 1.688 1.637 2.812-2.866z"/>
</svg>
