<?xml version="1.0" encoding="UTF-8" standalone="no"?><!DOCTYPE svg PUBLIC "-//W3C//DTD SVG 1.1//EN"
    "http://www.w3.org/Graphics/SVG/1.1/DTD/svg11.dtd">
<svg width="100%" height="100%" viewBox="0 0 282 104" version="1.1" xmlns="http://www.w3.org/2000/svg"
     xmlns:xlink="http://www.w3.org/1999/xlink" xml:space="preserve" xmlns:serif="http://www.serif.com/"
     style="fill-rule:evenodd;clip-rule:evenodd;stroke-linejoin:round;stroke-miterlimit:1.41421;">
    <g id="LOGO_FULL">
        <path d="M27.826,0.031l0,9.668l-17.044,0l0,83.906l15.884,0l0,9.668l-26.012,0l0,-103.242l27.172,0Z"
              style="fill:#ff3d59;fill-rule:nonzero;"
              filter="url(#grayscale)"/>
        <path
            d="M72.82,38.013c-6.369,0 -11.165,2.071 -14.388,6.215c-3.222,4.143 -4.834,9.706 -4.834,16.689l0,26.242l-12.89,0l0,-61.231l12.89,0l0,12.315c2.072,-3.837 4.892,-6.983 8.46,-9.438c3.568,-2.455 7.347,-3.721 11.337,-3.798l0.115,13.006c-0.23,0 -0.46,0 -0.69,0Z"
            style="fill:#fefffe;fill-rule:nonzero;"
            filter="url(#grayscale)"/>
        <rect x="86.401" y="25.928" width="12.891" height="61.232"
              style="fill:#fefffe;fill-rule:nonzero;"
              filter="url(#grayscale)"/>
        <path
            d="M132.267,70.988c3.645,3.721 8.268,5.582 13.869,5.582c5.602,0 10.225,-1.861 13.869,-5.582c3.645,-3.721 5.467,-8.536 5.467,-14.445c0,-5.908 -1.822,-10.723 -5.467,-14.444c-3.644,-3.722 -8.267,-5.583 -13.869,-5.583c-5.601,0 -10.224,1.861 -13.869,5.583c-3.645,3.721 -5.467,8.536 -5.467,14.444c0,5.909 1.822,10.724 5.467,14.445Zm36.889,7.942c-6.139,6.1 -13.812,9.15 -23.02,9.15c-9.208,0 -16.881,-3.05 -23.019,-9.15c-6.139,-6.1 -9.208,-13.563 -9.208,-22.387c0,-8.824 3.069,-16.286 9.208,-22.386c6.138,-6.1 13.811,-9.15 23.019,-9.15c9.208,0 16.881,3.05 23.02,9.15c6.138,6.1 9.207,13.562 9.207,22.386c0,8.824 -3.069,16.287 -9.207,22.387Z"
            style="fill:#fefffe;fill-rule:nonzero;"
            filter="url(#grayscale)"/>
        <path
            d="M205.871,87.159l-12.89,0l0,-85.402l12.89,0l0,50.182l24.861,-26.011l16.574,0l-23.249,24.285l24.976,36.946l-15.653,0l-18.186,-26.817l-9.323,9.437l0,17.38Z"
            style="fill:#fefffe;fill-rule:nonzero;"
            filter="url(#grayscale)"/>
        <path
            d="M255.248,9.699l0,-9.668l26.012,0l0,103.242l-26.012,0l0,-9.668l15.883,0l0,-83.906l-15.883,0Z"
            style="fill:#ff3d59;fill-rule:nonzero;"
            filter="url(#grayscale)"/>
        <rect x="86.401" y="0.031" width="13" height="9.663"
              style="fill:#ff3d59;"
              filter="url(#grayscale)"/>
    </g>
    <filter id="grayscale">
  <feColorMatrix type="matrix"
                 values="0.3333 0.3333 0.3333 0 0 0.3333 0.3333 0.3333 0 0 0.3333 0.3333 0.3333 0 0 0 0 0 1 0"/>
 </filter></svg>
